<svg width="64" height="64" viewBox="0 0 64 64" fill="none" xmlns="http://www.w3.org/2000/svg">
  <rect width="64" height="64" rx="18" fill="url(#bg)"/>
  <path d="M39 14V37.5C37.5 36.5 35.7 36 33.8 36C28.9 36 25 39 25 42.9C25 46.8 28.9 49.8 33.8 49.8C38.7 49.8 42.6 46.8 42.6 42.9V24.3L49 22.6V34.9C47.5 33.9 45.7 33.4 43.8 33.4C38.9 33.4 35 36.4 35 40.3C35 44.2 38.9 47.2 43.8 47.2C48.7 47.2 52.6 44.2 52.6 40.3V14L39 17.7V14Z" fill="white"/>
  <defs>
    <linearGradient id="bg" x1="8" y1="6" x2="58" y2="58" gradientUnits="userSpaceOnUse">
      <stop stop-color="#FF7A18"/>
      <stop offset="1" stop-color="#FF3D81"/>
    </linearGradient>
  </defs>
</svg>
